# xmcd
#
# Track frame offsets: 
#        150
#        13227
#        34658
#        48364
#        64072
#        76731
#        90360
#        110913
#        121606
#        131686
#        143180
#        157202
#        174774
#        184147
#        194557
#        213700
#        224797
#        235117
#        245719
#        256994
#
# Disc length: 3599 seconds
#
# Revision: 2
# Processed by: cddbd v1.4PL0 Copyright (c) Steve Scherf et al.
# Submitted via: ExactAudioCopy v0.90b4
#
DISCID=270e0d14
DTITLE=Alex Harvey - Alex Harvey And His Soul Band
DYEAR=1999
DGENRE=Blues
TTITLE0=The Liverpool Scene
TTITLE1=Shout
TTITLE2=What's Wrong With Me Baby
TTITLE3=Reelin' And Rockin'
TTITLE4=The Canoe Song
TTITLE5=The Little Boy That Santa Claus Forgot
TTITLE6=Hoochie Coochie Man
TTITLE7=Long Long Gone
TTITLE8=My Kind Of Lovin'
TTITLE9=Outskirts Of Town
TTITLE10=Parchman Farm
TTITLE11=Penecillin Blues
TTITLE12=Shakin' All Over
TTITLE13=Sticks And Stones
TTITLE14=Take Out Some Insurance On Me Baby
TTITLE15=Ten A Penny
TTITLE16=Tutti Frutti
TTITLE17=You Ain't No Good To Me Baby
TTITLE18=You Are My Sunshine
TTITLE19=You've Put A Spell On Me
EXTD=YEAR: 1999 ID3G:   0
EXTT0=
EXTT1=
EXTT2=
EXTT3=
EXTT4=
EXTT5=
EXTT6=
EXTT7=
EXTT8=
EXTT9=
EXTT10=
EXTT11=
EXTT12=
EXTT13=
EXTT14=
EXTT15=
EXTT16=
EXTT17=
EXTT18=
EXTT19=
PLAYORDER=
